Coordinates
version=1
nRows=7
nColumns=42
inDegrees=yes

Units are S.I. units (second, meters, Newtons, ...)
If the header above contains a line with 'inDegrees', this indicates whether rotational values are in degrees (yes) or radians (no).

endheader
time	pelvis_tilt	pelvis_list	pelvis_rotation	pelvis_tx	pelvis_ty	pelvis_tz	hip_flexion_r	hip_adduction_r	hip_rotation_r	knee_angle_r	knee_adduction_r	knee_angle_r_beta	ankle_angle_r	subtalar_angle_r	mtp_angle_r	hip_flexion_l	hip_adduction_l	hip_rotation_l	knee_angle_l	knee_adduction_l	knee_angle_l_beta	ankle_angle_l	subtalar_angle_l	mtp_angle_l	lumbar_extension	lumbar_bending	lumbar_rotation	arm_flex_r	arm_add_r	arm_rot_r	elbow_flex_r	pro_sup_r	wrist_flex_r	wrist_dev_r	arm_flex_l	arm_add_l	arm_rot_l	elbow_flex_l	pro_sup_l	wrist_flex_l	wrist_dev_l
      0.50000000	      6.25121357	     -1.28726796	      5.09663698	     -1.06938100	      0.88378113	     -0.15930105	     -0.26704966	      2.35092555	    -20.28435489	     25.10278355	     -1.65684724	      0.43812622	     21.69935131	     31.03646686	     -9.59572406	     10.41606761	     -2.18644240	      4.38631521	     56.64390888	     -3.19681162	      0.98862271	      4.69887450	     -6.38916327	     -9.59572406	    -29.77282576	      6.91437511	     -2.93969729	      9.15684273	    -13.72475188	    -12.25423039	     41.05044331	     90.00000001	      0.00000000	      0.00000000	     17.49695798	     -8.10306472	     30.79237254	     53.82838968	     90.00000001	      0.00000000	      0.00000000
      0.51000000	      6.21711433	     -1.26483430	      5.05245811	     -1.06704944	      0.88374894	     -0.15874453	     -0.42662097	      2.33471677	    -20.23226448	     25.13382232	     -1.56240493	      0.43866795	     21.65655871	     30.77685218	     -9.57587230	     11.12995504	     -2.14797323	      4.26795419	     56.45241623	     -3.06887264	      0.98528053	      4.75516246	     -6.22119543	     -9.57587230	    -29.76058925	      6.84935219	     -2.90713054	      9.17420992	    -13.70648967	    -12.19349095	     41.16418192	     90.00000001	      0.00000000	      0.00000000	     17.69842888	     -8.04216087	     30.73096362	     53.96894048	     90.00000001	      0.00000000	      0.00000000
      0.52000000	      6.11319917	     -1.32753918	      5.26878622	     -1.06460599	      0.88355604	     -0.15858636	     -0.73560021	      2.42313677	    -20.22609936	     24.68185206	     -1.28592691	      0.43077958	     21.90769465	     30.84639822	     -9.53129248	     11.97774477	     -2.11227039	      4.66526911	     56.37449624	     -2.81893372	      0.98392057	      5.10068368	     -5.79890663	     -9.53129248	    -29.59519761	      6.97973250	     -3.06247750	      9.09960804	    -13.71733227	    -11.97672707	     41.27658922	     90.00000001	      0.00000000	      0.00000000	     17.82600498	     -8.08705452	     30.98971167	     54.09714439	     90.00000001	      0.00000000	      0.00000000
      0.53000000	      6.07390084	     -1.30082759	      5.34715261	     -1.06214153	      0.88349051	     -0.15832180	     -0.99076432	      2.43891966	    -20.24067757	     24.48768205	     -1.20870491	      0.42739068	     21.97610760	     30.76097824	     -9.51157013	     12.69920744	     -2.02570908	      4.68367086	     56.21154472	     -2.74734396	      0.98107653	      5.24973996	     -5.59179672	     -9.51157013	    -29.52246559	      6.96708760	     -3.13397219	      9.06112033	    -13.71564626	    -11.90463429	     41.34222537	     90.00000001	      0.00000000	      0.00000000	     17.95748642	     -8.06013571	     31.01405858	     54.16134136	     90.00000001	      0.00000000	      0.00000000
      0.54000000	      6.06967542	     -1.27831346	      5.30974867	     -1.05983236	      0.88346410	     -0.15785278	     -1.14467969	      2.43273886	    -20.14727334	     24.58573616	     -1.14266858	      0.42910205	     21.88977139	     30.49452900	     -9.49216579	     13.37443029	     -2.01505989	      4.59230197	     56.06072774	     -2.64102160	      0.97844428	      5.28386894	     -5.36458270	     -9.49216579	    -29.54577538	      6.90356550	     -3.10991062	      9.06208107	    -13.68872130	    -11.84772806	     41.46893060	     90.00000001	      0.00000000	      0.00000000	     18.11018552	     -8.04263411	     30.92894509	     54.27911265	     90.00000001	      0.00000000	      0.00000000
      0.55000000	      5.98988362	     -1.38068111	      5.66646229	     -1.05737558	      0.88326058	     -0.15792571	     -1.52137003	      2.60084917	    -20.28174074	     24.03174619	     -0.91056594	      0.41943310	     22.07873987	     30.65817321	     -9.44013383	     14.20983574	     -2.04651800	      5.10487128	     55.98889981	     -2.44003888	      0.97719065	      5.81609394	     -4.21390688	     -9.44013383	    -29.37677866	      7.13630046	     -3.35929890	      8.91848786	    -13.72534531	    -11.55536291	     41.72490013	     90.00000001	      0.00000000	      0.00000000	     18.24289836	     -8.10247873	     31.13718617	     54.33001154	     90.00000001	      0.00000000	      0.00000000
      0.56000000	      5.98809214	     -1.34429399	      5.62116694	     -1.05500945	      0.88321660	     -0.15751077	     -1.67217410	      2.59244847	    -20.20019767	     24.12928839	     -0.88758500	      0.42113553	     21.99669007	     30.39942511	     -9.42222507	     14.84103280	     -2.03120363	      4.99081029	     55.81592290	     -2.38095359	      0.97417163	      5.85315293	     -4.03509656	     -9.42222507	    -29.38054302	      7.06936623	     -3.32236164	      8.90380783	    -13.70242750	    -11.50285104	     41.83651099	     90.00000001	      0.00000000	      0.00000000	     18.35347450	     -8.10597238	     31.04806319	     54.41517742	     90.00000001	      0.00000000	      0.00000000
